<svg width="193" height="165" viewBox="0 0 193 165" fill="none" xmlns="http://www.w3.org/2000/svg">
<path d="M76.8216 8.80859C80.9576 15.0686 81.1856 24.5486 76.8216 28.7766C72.4576 33.0046 52.7576 28.7766 52.7576 28.7766C52.7576 28.7766 53.6135 100.549 49.6855 104.049C45.7576 107.549 37.1536 101.609 27.6696 99.0486C18.1855 96.4886 27.6696 28.7766 27.6696 28.7766C27.6696 28.7766 7.68557 32.5486 3.86158 28.7766C0.0375962 25.0046 -2.46239 18.0686 3.86158 8.80859C10.1856 -0.451387 72.6856 2.54861 76.8216 8.80859Z" fill="#FF6E00"/>
<path d="M177.39 4.20059C183.186 9.54859 179.829 61.0486 174.446 65.2566C169.062 69.4646 157.954 69.4646 153.07 65.2566C148.186 61.0486 143.686 10.0486 150.126 4.20059C156.566 -1.64741 171.594 -1.14741 177.39 4.20059ZM163.822 100.073C159.384 100.073 155.8 98.8779 153.07 96.4886C150.424 94.0139 149.102 90.8993 149.102 87.1446C149.102 83.3899 150.424 80.2753 153.07 77.8006C155.8 75.3259 159.384 74.0886 163.822 74.0886C168.174 74.0886 171.672 75.3259 174.318 77.8006C177.048 80.2753 178.414 83.3899 178.414 87.1446C178.414 90.8139 177.048 93.8859 174.318 96.3606C171.672 98.8353 168.174 100.073 163.822 100.073Z" fill="#FF6E00"/>
<path d="M90.156 139.908C88.0367 135.549 88.0367 121.877 88.0367 121.877C85.3145 121.024 82.6694 119.923 80.1014 118.573C72.6239 114.641 66.631 109.273 62.1227 102.469C57.6528 95.5886 55.1366 88.0485 54.5744 79.8488C54.126 71.6125 55.8922 63.5285 59.873 55.5967C63.8538 47.665 69.2263 41.5252 75.9905 37.1775C82.8685 32.7932 90.3224 30.4949 98.3522 30.2826C106.382 30.0703 114.136 31.9299 121.613 35.8613C129.166 39.8324 135.159 45.2002 139.592 51.9648C144.1 58.769 146.578 66.2893 147.027 74.5256C147.514 82.6856 145.767 90.7315 141.786 98.6632C138.456 105.298 134.052 110.743 128.576 114.997C123.138 119.174 117.178 121.921 110.695 123.235C110.695 123.235 121.834 151.549 116.667 153.847C111.501 156.145 92.2754 144.268 90.156 139.908ZM82.5321 67.51C79.355 73.8402 78.4527 79.7276 79.8249 85.1722C81.2354 90.5406 84.8108 94.7338 90.5511 97.7518C96.2158 100.73 101.61 101.205 106.733 99.175C111.932 97.1852 116.101 93.0634 119.24 86.8095C122.455 80.4031 123.32 74.4958 121.834 69.0878C120.461 63.6431 116.943 59.4316 111.278 56.4533C105.538 53.4353 100.106 52.941 94.9827 54.9705C89.8976 56.9238 85.7473 61.1036 82.5321 67.51Z" fill="#FF6E00"/>
<path d="M139.995 145.902C138.767 145.099 138.003 143.975 137.7 142.529C137.398 141.083 137.649 139.746 138.451 138.519L155.97 111.741C156.773 110.513 157.898 109.748 159.344 109.446C160.789 109.144 162.126 109.394 163.353 110.197L167.816 113.117C169.422 110.662 171.671 109.133 174.563 108.528C177.454 107.924 180.127 108.425 182.582 110.031C185.037 111.636 186.566 113.885 187.171 116.777C187.775 119.669 187.275 122.342 185.669 124.796L190.132 127.716C191.359 128.519 192.124 129.644 192.426 131.089C192.728 132.535 192.478 133.872 191.675 135.099L174.156 161.878C173.353 163.105 172.229 163.87 170.783 164.172C169.337 164.474 168.001 164.224 166.773 163.421L139.995 145.902ZM142.915 141.439L169.693 158.958L187.212 132.179L182.749 129.259L179.829 133.723C179.415 134.355 178.855 134.745 178.147 134.893C177.44 135.041 176.77 134.908 176.138 134.494C175.505 134.081 175.115 133.52 174.967 132.812C174.819 132.105 174.952 131.435 175.366 130.803L178.286 126.34L169.36 120.5L166.44 124.963C166.026 125.595 165.466 125.985 164.758 126.133C164.051 126.281 163.381 126.148 162.748 125.735C162.116 125.321 161.726 124.76 161.578 124.053C161.43 123.345 161.563 122.676 161.977 122.043L164.897 117.58L160.433 114.66L142.915 141.439ZM172.279 116.037L181.206 121.877C182.009 120.649 182.259 119.313 181.957 117.867C181.654 116.421 180.89 115.297 179.662 114.494C178.435 113.691 177.098 113.44 175.653 113.743C174.207 114.045 173.082 114.81 172.279 116.037Z" fill="#FF6E00"/>
</svg>
